<?xml version="1.0" encoding="utf-8"?>
<!-- Generator: Adobe Illustrator 27.3.1, SVG Export Plug-In . SVG Version: 6.00 Build 0)  -->
<svg version="1.1" id="Layer_1" xmlns="http://www.w3.org/2000/svg" xmlns:xlink="http://www.w3.org/1999/xlink" x="0px" y="0px"
	 viewBox="0 0 1000 1000" style="enable-background:new 0 0 1000 1000;" xml:space="preserve">
<style type="text/css">
	.st0{fill:#E7A649;}
</style>
<g id="Milan">
	<path id="Metropolitan_Cathedral-Basilica_of_St_Mary_of_the_Nativity" class="st0" d="M835.3,552l-15.8,134.1L803.7,552
		l-15.8,134.1v39.4l-71-70v-48.3l-15.8-134.1l-15.8,134.1v17.2l-71-70v-57.6l-15.8-134.1l-15.8,134.1l-15.8-134.1l-15.3,129.9
		L500,441.5l-51.8,51.1l-15.3-129.9l-15.8,134.1l-15.8-134.1l-15.8,134.1v57.6l-71,70v-17.2l-15.8-134.1l-15.8,134.1v48.3l-71,70
		v-39.4L196.3,552l-15.8,134.1L164.7,552l-15.8,134.1v276.1l-7.9,7.9v15.8h86.8v-63.1l7.9-7.9h23.7l7.9,7.9v63.1h63.1v-63.1l7.9-7.9
		h23.7l7.9,7.9v63.1h102.6v-94.7l7.9-15.8h39.4l7.9,15.8v94.7h102.6v-63.1l7.9-7.9h23.7l7.9,7.9v63.1h63.1v-63.1l7.9-7.9h23.7
		l7.9,7.9v63.1h86.8v-15.8l-7.9-7.9V686.1L835.3,552z M259.4,859.6h-23.7v-43.4c0-6.5,5.3-11.8,11.8-11.8s11.8,5.3,11.8,11.8V859.6z
		 M361.9,859.6h-23.7v-43.4c0-6.5,5.3-11.8,11.8-11.8s11.8,5.3,11.8,11.8V859.6z M361.9,765h-23.7v-35.5c0-10,4.6-18.8,11.8-24.6
		c7.2,5.8,11.8,14.6,11.8,24.6V765z M519.7,780.8h-39.4v-43.4c0-10.9,8.8-19.7,19.7-19.7c10.9,0,19.7,8.8,19.7,19.7V780.8z
		 M519.7,654.5h-39.4v-59.2c0-14.6,7.9-27.3,19.7-34.1c11.8,6.8,19.7,19.5,19.7,34.1V654.5z M661.7,859.6h-23.7v-43.4
		c0-6.5,5.3-11.8,11.8-11.8c6.5,0,11.8,5.3,11.8,11.8V859.6z M661.7,765h-23.7v-35.5c0-10,4.6-18.8,11.8-24.6
		c7.2,5.8,11.8,14.6,11.8,24.6V765z M764.3,859.6h-23.7v-43.4c0-6.5,5.3-11.8,11.8-11.8c6.5,0,11.8,5.3,11.8,11.8V859.6z"/>
</g>
</svg>
