<?xml version="1.0" encoding="utf-8"?>
<!-- Generator: Adobe Illustrator 27.3.1, SVG Export Plug-In . SVG Version: 6.00 Build 0)  -->
<svg version="1.1" id="Layer_1" xmlns="http://www.w3.org/2000/svg" xmlns:xlink="http://www.w3.org/1999/xlink" x="0px" y="0px"
	 viewBox="0 0 1000 1000" style="enable-background:new 0 0 1000 1000;" xml:space="preserve">
<style type="text/css">
	.st0{fill:#E7A649;}
</style>
<g id="Naples">
	<path id="Castel_Nuovo" class="st0" d="M970.1,510.3v10.5h-10.5v-10.5h-10.5v10.5h-10.5v-10.5H928v10.5h-10.5v-10.5H907v10.5h-10.5
		v-10.5H886v10.5h-10.5v-10.5h-10.5v10.5h-10.5v-10.5h-10.5v10.5h-10.5v-10.5h-10.5v10.5h-10.5v-10.5h-10.5v10.5h-10.5v-10.5h-10.5
		v10.5h-10.5v-10.5h-10.5v42.1c5.8,0,10.5,4.7,10.5,10.5v21H748c-13.3-13-31.4-21-51.5-21c-20.1,0-38.2,8-51.5,21h-22.2v-21
		c0-5.8,4.7-10.5,10.5-10.5v-42.1h-10.5v10.5h-10.5v-10.5h-10.5v10.5h-10.5v-10.5h-10.5v10.5h-10.5v-10.5h-10.5v10.5h-10.5v-10.5
		h-10.5v10.5h-10.5v-10.5h-10.5v10.5h-10.5v-10.5h-10.5v10.5h-10.5v-10.5h-10.5v10.5H465v-10.5h-10.5v10.5H444v-10.5h-10.5v10.5
		h-10.5v-10.5h-10.5v42.1c5.8,0,10.5,4.7,10.5,10.5v105.2H223V584c0-5.8,4.7-10.5,10.5-10.5v-42.1H223v10.5h-10.5v-10.5h-10.5v10.5
		h-10.5v-10.5h-10.5v10.5h-10.5v-10.5h-10.5v10.5h-10.5v-10.5h-10.5v10.5h-10.5v-10.5h-10.5v10.5h-10.5v-10.5H96.7v10.5H86.2v-10.5
		H75.6v10.5H65.1v-10.5H54.6v10.5H44.1v-10.5H33.5v10.5H23v-10.5H12.5v42.1c5.8,0,10.5,4.7,10.5,10.5v399.9H665v-94.7
		c0-17.4,14.1-31.6,31.6-31.6c17.4,0,31.6,14.1,31.6,31.6v94.7h242V562.9c0-5.8,4.7-10.5,10.5-10.5v-42.1H970.1z M133.5,910.2h-21
		v-21h21V910.2z M133.5,857.6h-21V826h21V857.6z M133.5,773.4h-21v-31.6h21V773.4z M133.5,699.7h-21v-31.6h21V699.7z M133.5,626h-21
		v-21h21V626z M244,910.2h-10.5v-31.6H244V910.2z M244,857.6h-10.5V826H244V857.6z M254.5,773.4h-21v-21c0-5.8,4.7-10.5,10.5-10.5
		c5.8,0,10.5,4.7,10.5,10.5V773.4z M286.1,773.4h-21v-21c0-5.8,4.7-10.5,10.5-10.5c5.8,0,10.5,4.7,10.5,10.5V773.4z M296.6,752.3
		c0-5.8,4.7-10.5,10.5-10.5c5.8,0,10.5,4.7,10.5,10.5v21h-21V752.3z M328.2,910.2h-10.5v-31.6h10.5V910.2z M328.2,857.6h-10.5V826
		h10.5V857.6z M349.2,773.4h-21v-21c0-5.8,4.7-10.5,10.5-10.5c5.8,0,10.5,4.7,10.5,10.5V773.4z M380.8,773.4h-21v-21
		c0-5.8,4.7-10.5,10.5-10.5c5.8,0,10.5,4.7,10.5,10.5V773.4z M412.4,773.4h-21v-21c0-5.8,4.7-10.5,10.5-10.5
		c5.8,0,10.5,4.7,10.5,10.5V773.4z M533.4,910.2h-21v-21h21V910.2z M533.4,857.6h-21V826h21V857.6z M533.4,773.4h-21v-31.6h21V773.4
		z M533.4,699.7h-21v-31.6h21V699.7z M533.4,626h-21v-21h21V626z M728.1,741.8H665v-42.1c0-17.4,14.1-31.6,31.6-31.6
		c17.4,0,31.6,14.1,31.6,31.6V741.8z M880.7,857.6h-21V826h21V857.6z M880.7,773.4h-21v-31.6h21V773.4z M880.7,699.7h-21v-31.6h21
		V699.7z M880.7,626h-21v-21h21V626z"/>
</g>
</svg>
