<?xml version="1.0" encoding="utf-8"?>
<!-- Generator: Adobe Illustrator 27.3.1, SVG Export Plug-In . SVG Version: 6.00 Build 0)  -->
<svg version="1.1" id="Layer_1" xmlns="http://www.w3.org/2000/svg" xmlns:xlink="http://www.w3.org/1999/xlink" x="0px" y="0px"
	 viewBox="0 0 1000 1000" style="enable-background:new 0 0 1000 1000;" xml:space="preserve">
<style type="text/css">
	.st0{fill:#E7A649;}
</style>
<g id="Cattedrale_di_Santa_Maria_del_Fiore">
	<circle class="st0" cx="500" cy="295.4" r="7.6"/>
	<path class="st0" d="M801.5,974.8V860.3h-7.6l-34.4-38.2l7.6-7.6v-7.6h-7.6c0-38.3-28.2-69.8-64.9-75.4
		c-11.2,1.7-21.5,5.8-30.5,11.8v-96.7c0-92.6-50.8-171.1-126-213.7v-30.5L522.9,387v-45.8L500,303l-22.9,38.2V387l-15.3,15.3v30.5
		c-75.2,42.6-126,121.1-126,213.7v92.3c-7.1-3.6-14.8-6.1-22.9-7.4c-36.7,5.5-64.9,37.1-64.9,75.4h-7.6v7.6l7.6,7.6l-42,38.2h-7.6
		v114.5l-7.6,15.3h618.3L801.5,974.8z M244.3,944.3H229v-35.1c0-5,3.2-9.2,7.6-10.8c4.4,1.6,7.6,5.8,7.6,10.8V944.3z M282.4,867.9
		h-15.3v-35.1c0-5,3.2-9.2,7.6-10.7c4.4,1.6,7.6,5.8,7.6,10.7V867.9z M320.6,944.3h-15.3v-35.1c0-5,3.2-9.2,7.6-10.8
		c4.4,1.6,7.6,5.8,7.6,10.8V944.3z M320.6,867.9h-15.3v-35.1c0-5,3.2-9.2,7.6-10.7c4.4,1.6,7.6,5.8,7.6,10.7V867.9z M408.4,715.3
		c-10.5,0-19.1-8.5-19.1-19.1c0-10.5,8.5-19.1,19.1-19.1c10.5,0,19.1,8.5,19.1,19.1C427.5,706.7,418.9,715.3,408.4,715.3z
		 M438.9,944.3h-15.3v-35.1c0-5,3.2-9.2,7.6-10.8c4.4,1.6,7.6,5.8,7.6,10.8V944.3z M469.5,867.9h-15.3v-35.1c0-5,3.2-9.2,7.6-10.7
		c4.4,1.6,7.6,5.8,7.6,10.7V867.9z M477.1,432.8h-7.6v-22.9h7.6V432.8z M496.2,383.2c0-2.1,1.7-3.8,3.8-3.8c2.1,0,3.8,1.7,3.8,3.8
		v49.6h-7.6V383.2z M507.6,944.3h-15.3v-35.1c0-5,3.2-9.2,7.6-10.8c4.4,1.6,7.6,5.8,7.6,10.8V944.3z M507.6,867.9h-15.3v-35.1
		c0-5,3.2-9.2,7.6-10.7c4.4,1.6,7.6,5.8,7.6,10.7V867.9z M500,715.3c-10.5,0-19.1-8.5-19.1-19.1c0-10.5,8.5-19.1,19.1-19.1
		c10.5,0,19.1,8.5,19.1,19.1C519.1,706.7,510.5,715.3,500,715.3z M522.9,409.9h7.6v22.9h-7.6V409.9z M545.8,867.9h-15.3v-35.1
		c0-5,3.2-9.2,7.6-10.7c4.4,1.6,7.6,5.8,7.6,10.7V867.9z M576.3,944.3h-15.3v-35.1c0-5,3.2-9.2,7.6-10.8c4.4,1.6,7.6,5.8,7.6,10.8
		V944.3z M591.6,715.3c-10.5,0-19.1-8.5-19.1-19.1c0-10.5,8.5-19.1,19.1-19.1c10.5,0,19.1,8.5,19.1,19.1
		C610.7,706.7,602.1,715.3,591.6,715.3z M702.3,944.3H687v-35.1c0-5,3.2-9.2,7.6-10.8c4.4,1.6,7.6,5.8,7.6,10.8V944.3z M702.3,867.9
		H687v-35.1c0-5,3.2-9.2,7.6-10.7c4.4,1.6,7.6,5.8,7.6,10.7V867.9z M740.5,867.9h-15.3v-35.1c0-5,3.2-9.2,7.6-10.7
		c4.4,1.6,7.6,5.8,7.6,10.7V867.9z M771,944.3h-15.3v-35.1c0-5,3.2-9.2,7.6-10.8c4.4,1.6,7.6,5.8,7.6,10.8V944.3z"/>
</g>
</svg>
