<?xml version="1.0" encoding="utf-8"?>
<!-- Generator: Adobe Illustrator 27.3.1, SVG Export Plug-In . SVG Version: 6.00 Build 0)  -->
<svg version="1.1" id="Layer_1" xmlns="http://www.w3.org/2000/svg" xmlns:xlink="http://www.w3.org/1999/xlink" x="0px" y="0px"
	 viewBox="0 0 1000 1000" style="enable-background:new 0 0 1000 1000;" xml:space="preserve">
<style type="text/css">
	.st0{fill:#E7A649;}
</style>
<g id="Rome">
	<path id="Colosseum_1_" class="st0" d="M979.2,985.5l-15-351.2H703.2v50.2H552.7h-50.2l-50.2-102.8v-47.7h-30.1l-50.2-100.3H50.9
		l-4.6,101.1c-6,2-10.5,7.6-10.5,14.3c0,6.2,3.8,11.6,9.2,13.9l-6.7,147c-7.1,1.2-12.5,7.3-12.5,14.8c0,7,4.8,12.8,11.2,14.5
		L32.3,843c-6.6,1.6-11.5,7.5-11.5,14.6c0,6.6,4.3,12.1,10.2,14.2l-5.2,113.8H76v-78.9c0-13.9,11.2-25.1,25.1-25.1
		s25.1,11.2,25.1,25.1v78.9h50.2v-78.9c0-13.9,11.2-25.1,25.1-25.1s25.1,11.2,25.1,25.1v78.9h50.2v-77.8c0-13.9,11.2-25.1,25.1-25.1
		c13.9,0,25.1,11.2,25.1,25.1v77.8h50.2v-78.9c0-13.9,11.2-25.1,25.1-25.1c13.9,0,25.1,11.2,25.1,25.1v78.9h50.2v-78.9
		c0-13.9,11.2-25.1,25.1-25.1c13.9,0,25.1,11.2,25.1,25.1v78.9h50.2v-78.9c0-13.9,11.2-25.1,25.1-25.1s25.1,11.2,25.1,25.1v78.9H653
		h25.1h25.1l-25.1-52.7v-25.1c0-13.9,11.2-25.1,25.1-25.1s25.1,11.2,25.1,25.1v77.8h50.2v-78.9c0-13.9,11.2-25.1,25.1-25.1
		s25.1,11.2,25.1,25.1v78.9h25.1h25.1h25.1l-25.1-52.7v-26.2c0-13.9,11.2-25.1,25.1-25.1s25.1,11.2,25.1,25.1v78.9H979.2z
		 M91.1,483.8h20.1v30.1H91.1V483.8z M126.2,835H76v-78.9c0-13.9,11.2-25.1,25.1-25.1s25.1,11.2,25.1,25.1V835z M126.2,684.5H76
		v-78.9c0-13.9,11.2-25.1,25.1-25.1s25.1,11.2,25.1,25.1V684.5z M191.4,483.8h20.1v30.1h-20.1V483.8z M226.6,835h-50.2v-78.9
		c0-13.9,11.2-25.1,25.1-25.1s25.1,11.2,25.1,25.1V835z M226.6,684.5h-50.2v-78.9c0-13.9,11.2-25.1,25.1-25.1s25.1,11.2,25.1,25.1
		V684.5z M291.8,483.8h20.1v30.1h-20.1V483.8z M326.9,835h-50.2v-77.8c0-13.9,11.2-25.1,25.1-25.1c13.9,0,25.1,11.2,25.1,25.1V835z
		 M326.9,684.5h-50.2v-77.8c0-13.9,11.2-25.1,25.1-25.1c13.9,0,25.1,11.2,25.1,25.1V684.5z M427.2,835h-50.2v-78.9
		c0-13.9,11.2-25.1,25.1-25.1c13.9,0,25.1,11.2,25.1,25.1V835z M427.2,684.5h-50.2v-78.9c0-13.9,11.2-25.1,25.1-25.1
		c13.9,0,25.1,11.2,25.1,25.1V684.5z M527.6,835h-50.2v-78.9c0-13.9,11.2-25.1,25.1-25.1c13.9,0,25.1,11.2,25.1,25.1V835z
		 M627.9,835h-25.1l-25.1-52.7v-26.2c0-13.9,11.2-25.1,25.1-25.1s25.1,11.2,25.1,25.1V835z M728.3,835h-50.2v-77.8
		c0-13.9,11.2-25.1,25.1-25.1s25.1,11.2,25.1,25.1V835z M793.5,669.4h20.1v30.1h-20.1V669.4z M828.6,835h-25.1l-25.1-52.7v-26.2
		c0-13.9,11.2-25.1,25.1-25.1s25.1,11.2,25.1,25.1V835z M893.9,669.4h20.1v30.1h-20.1V669.4z M878.8,835v-78.9
		c0-13.9,11.2-25.1,25.1-25.1s25.1,11.2,25.1,25.1V835H878.8z"/>
</g>
</svg>
